<svg xmlns="http://www.w3.org/2000/svg" fill="none" stroke="currentColor" stroke-linecap="round" stroke-linejoin="round" stroke-width="1.8" viewBox="0 0 24 24">
  <circle cx="12" cy="12" r="3.5" />
  <path d="M19.4 15a1.8 1.8 0 0 0 .36 2l.05.05a2 2 0 1 1-2.83 2.83l-.05-.05a1.8 1.8 0 0 0-2-.36 1.8 1.8 0 0 0-1.08 1.65V21a2 2 0 1 1-4 0v-.08a1.8 1.8 0 0 0-1.08-1.65 1.8 1.8 0 0 0-2 .36l-.05.05a2 2 0 1 1-2.83-2.83l.05-.05a1.8 1.8 0 0 0 .36-2A1.8 1.8 0 0 0 2.65 13H2.5a2 2 0 1 1 0-4h.15A1.8 1.8 0 0 0 4.3 7.92a1.8 1.8 0 0 0-.36-2l-.05-.05A2 2 0 1 1 6.72 3.04l.05.05a1.8 1.8 0 0 0 2 .36A1.8 1.8 0 0 0 9.85 1.8V1.7a2 2 0 1 1 4 0v.1a1.8 1.8 0 0 0 1.08 1.65 1.8 1.8 0 0 0 2-.36l.05-.05a2 2 0 1 1 2.83 2.83l-.05.05a1.8 1.8 0 0 0-.36 2A1.8 1.8 0 0 0 21.05 9H21.2a2 2 0 1 1 0 4h-.15A1.8 1.8 0 0 0 19.4 15z" />
</svg>
